<?xml version="1.0"?>
<svg xmlns="http://www.w3.org/2000/svg" xmlns:xlink="http://www.w3.org/1999/xlink" xmlns:svgjs="http://svgjs.com/svgjs" version="1.1" width="512" height="512" x="0" y="0" viewBox="0 0 496 496" style="enable-background:new 0 0 512 512" xml:space="preserve" class=""><g><path xmlns="http://www.w3.org/2000/svg" d="m424 40h-352c-17.671875 0-32 14.328125-32 32v352c0 17.671875 14.328125 32 32 32h352c17.671875 0 32-14.328125 32-32v-352c0-17.671875-14.328125-32-32-32zm-312 295.769531v-175.539062l135.769531 87.769531zm160 0v-175.539062l135.769531 87.769531zm0 0" fill="#57a4ff" data-original="#57a4ff" style="" class=""/><g xmlns="http://www.w3.org/2000/svg" fill="#004fac"><path d="m272 343.769531c-4.417969 0-8-3.582031-8-8v-175.539062c0-2.929688 1.601562-5.625 4.175781-7.027344s5.707031-1.28125 8.167969.308594l135.769531 87.769531c2.28125 1.472656 3.65625 4.003906 3.65625 6.71875s-1.375 5.246094-3.65625 6.71875l-135.769531 87.769531c-1.292969.835938-2.800781 1.28125-4.34375 1.28125zm8-168.800781v146.09375l113.03125-73.0625zm0 0" fill="#004fac" data-original="#004fac" style="" class=""/><path d="m112 343.769531c-4.417969 0-8-3.582031-8-8v-175.539062c0-2.929688 1.601562-5.625 4.175781-7.027344s5.707031-1.28125 8.167969.308594l135.769531 87.769531c2.28125 1.472656 3.65625 4.003906 3.65625 6.71875s-1.375 5.246094-3.65625 6.71875l-135.769531 87.769531c-1.292969.835938-2.800781 1.28125-4.34375 1.28125zm8-168.800781v146.09375l113.03125-73.0625zm0 0" fill="#004fac" data-original="#004fac" style="" class=""/><path d="m456 496h-416c-22.082031-.027344-39.9726562-17.917969-40-40v-416c.0273438-22.082031 17.917969-39.9726562 40-40h416c22.082031.0273438 39.972656 17.917969 40 40v416c-.027344 22.082031-17.917969 39.972656-40 40zm-416-480c-13.253906 0-24 10.746094-24 24v416c0 13.253906 10.746094 24 24 24h416c13.253906 0 24-10.746094 24-24v-416c0-13.253906-10.746094-24-24-24zm0 0" fill="#004fac" data-original="#004fac" style="" class=""/><path d="m424 464h-352c-22.082031-.027344-39.972656-17.917969-40-40v-352c.027344-22.082031 17.917969-39.972656 40-40h352c22.082031.027344 39.972656 17.917969 40 40v352c-.027344 22.082031-17.917969 39.972656-40 40zm-352-416c-13.253906 0-24 10.746094-24 24v352c0 13.253906 10.746094 24 24 24h352c13.253906 0 24-10.746094 24-24v-352c0-13.253906-10.746094-24-24-24zm0 0" fill="#004fac" data-original="#004fac" style="" class=""/></g></g></svg>
